<svg xmlns="http://www.w3.org/2000/svg" viewBox="0 0 525.72 106.00" width="525.72" height="106.00"><g transform="translate(44.000,5.000) scale(0.260163)"><g transform="translate(0.000000,369.000000) scale(0.100000,-0.100000)" stroke="none"><path d="M1880 3598 c-69 -44 -289 -175 -490 -291 -201 -115 -371 -215 -378&#xA;-222 l-13 -12 413 -238 c227 -131 455 -265 506 -297 l93 -58 34 0 34 0 516&#xA;297 c283 164 515 300 515 303 0 3 -232 139 -515 303 l-515 297 -37 0 -38 -1&#xA;-125 -81z" fill="#7BADE0"></path><path d="M2765 2470 l-639 -390 -38 0 -38 0 -642 382 c-354 210 -647 381 -653&#xA;381 -12 0 -605 -394 -605 -402 0 -3 412 -251 915 -549 l915 -544 62 -10 63&#xA;-11 55 15 56 14 769 468 c424 258 830 505 903 550 l132 81 -3 9 c-3 9 -596&#xA;396 -606 396 -3 0 -294 -176 -646 -390z" fill="#5F81B2"></path><path d="M10 1667 l0 -524 948 -549 947 -549 50 -17 50 -17 66 -1 65 0 50 15&#xA;49 15 955 554 955 553 3 522 c1 286 0 521 -4 521 -5 0 -323 -183 -1684 -972&#xA;l-325 -188 -58 0 -58 0 -32 17 c-18 9 -273 156 -567 326 -294 171 -717 416&#xA;-940 544 -223 129 -420 244 -437 255 l-33 20 0 -525z" fill="#3E6191"></path></g></g><rect x="178.23" y="5.00" width="2.4" height="96.00" fill="#1C4070"></rect><g transform="translate(206.23,56.53)"><g fill="#1C4070"><path transform="translate(0.000,0) scale(0.046000,-0.046000)" d="M35 0V40Q80 42 102.5 50.5Q125 59 132.5 83.0Q140 107 140 154V616Q140 663 133.0 686.5Q126 710 106.0 719.0Q86 728 46 730V770H391V730Q346 729 324.0 719.5Q302 710 294.5 685.0Q287 660 287 609V190Q287 134 303.5 105.0Q320 76 359.5 65.5Q399 55 468 55Q545 55 590.5 69.0Q636 83 660.5 120.0Q685 157 700 227H740L724 0Z"></path><path transform="translate(37.030,0) scale(0.046000,-0.046000)" d="M287 680V426Q351 426 390.0 430.0Q429 434 450.5 446.5Q472 459 481.5 483.5Q491 508 495 548H532V255H495Q489 296 478.5 320.0Q468 344 447.0 355.5Q426 367 388.0 371.0Q350 375 287 375V169Q287 126 303.0 101.0Q319 76 356.5 65.5Q394 55 458 55Q534 55 579.5 70.0Q625 85 650.0 123.0Q675 161 689 229H729L713 0H35V40Q80 42 102.5 50.5Q125 59 132.5 83.0Q140 107 140 154V616Q140 663 133.0 686.5Q126 710 106.0 719.0Q86 728 46 730V770H678L685 574H642Q634 630 613.0 661.0Q592 692 550.5 704.5Q509 717 438 717H325Q300 717 293.5 710.5Q287 704 287 680Z"></path><path transform="translate(74.474,0) scale(0.046000,-0.046000)" d="M438 -10Q318 -10 230.5 36.5Q143 83 95.0 168.5Q47 254 47 371Q47 493 98.0 585.0Q149 677 240.0 728.5Q331 780 450 780Q512 780 568.0 763.0Q624 746 689 708L708 770H744V517H694Q681 580 649.5 624.0Q618 668 570.5 691.5Q523 715 462 715Q386 715 332.0 675.0Q278 635 249.0 560.0Q220 485 220 379Q220 224 282.5 140.5Q345 57 462 57Q518 57 558.5 77.0Q599 97 620.5 133.5Q642 170 642 221Q642 267 617.5 289.0Q593 311 537 315V355H861V315Q812 315 793.0 293.5Q774 272 774 216V83Q745 83 726.5 80.0Q708 77 687.5 67.0Q667 57 630 35Q592 13 543.5 1.5Q495 -10 438 -10Z"></path><path transform="translate(117.070,0) scale(0.046000,-0.046000)" d="M438 -10Q318 -10 230.5 36.5Q143 83 95.0 168.5Q47 254 47 371Q47 493 98.0 585.0Q149 677 240.0 728.5Q331 780 450 780Q512 780 568.0 763.0Q624 746 689 708L708 770H744V517H694Q681 580 649.5 624.0Q618 668 570.5 691.5Q523 715 462 715Q386 715 332.0 675.0Q278 635 249.0 560.0Q220 485 220 379Q220 224 282.5 140.5Q345 57 462 57Q518 57 558.5 77.0Q599 97 620.5 133.5Q642 170 642 221Q642 267 617.5 289.0Q593 311 537 315V355H861V315Q812 315 793.0 293.5Q774 272 774 216V83Q745 83 726.5 80.0Q708 77 687.5 67.0Q667 57 630 35Q592 13 543.5 1.5Q495 -10 438 -10Z"></path><path transform="translate(159.666,0) scale(0.046000,-0.046000)" d="M287 680V426Q351 426 390.0 430.0Q429 434 450.5 446.5Q472 459 481.5 483.5Q491 508 495 548H532V255H495Q489 296 478.5 320.0Q468 344 447.0 355.5Q426 367 388.0 371.0Q350 375 287 375V169Q287 126 303.0 101.0Q319 76 356.5 65.5Q394 55 458 55Q534 55 579.5 70.0Q625 85 650.0 123.0Q675 161 689 229H729L713 0H35V40Q80 42 102.5 50.5Q125 59 132.5 83.0Q140 107 140 154V616Q140 663 133.0 686.5Q126 710 106.0 719.0Q86 728 46 730V770H678L685 574H642Q634 630 613.0 661.0Q592 692 550.5 704.5Q509 717 438 717H325Q300 717 293.5 710.5Q287 704 287 680Z"></path><path transform="translate(197.110,0) scale(0.046000,-0.046000)" d="M805 770 815 550H772Q768 616 748.5 652.5Q729 689 693.5 703.5Q658 718 604 718Q553 718 527.0 715.5Q501 713 493.0 706.0Q485 699 485 687V163Q485 120 494.0 93.5Q503 67 532.0 54.5Q561 42 620 40V0H201V40Q261 42 290.0 54.5Q319 67 328.5 93.5Q338 120 338 163V687Q338 699 331.0 706.0Q324 713 302.0 715.5Q280 718 235 718Q199 718 166.0 714.0Q133 710 108.0 694.5Q83 679 68.0 645.0Q53 611 51 550H12L22 770Z"></path><path transform="translate(237.452,0) scale(0.046000,-0.046000)" d="M805 770 815 550H772Q768 616 748.5 652.5Q729 689 693.5 703.5Q658 718 604 718Q553 718 527.0 715.5Q501 713 493.0 706.0Q485 699 485 687V163Q485 120 494.0 93.5Q503 67 532.0 54.5Q561 42 620 40V0H201V40Q261 42 290.0 54.5Q319 67 328.5 93.5Q338 120 338 163V687Q338 699 331.0 706.0Q324 713 302.0 715.5Q280 718 235 718Q199 718 166.0 714.0Q133 710 108.0 694.5Q83 679 68.0 645.0Q53 611 51 550H12L22 770Z"></path></g></g><g transform="translate(206.23,84.89)"><g fill="#3E6191"><path transform="translate(0.000,0) scale(0.020765,-0.020765)" d="M331.6451416015625 702Q374.3318338839807 702 404.89162494980286 700.0Q435.451416015625 698 461.37093777126734 693.7994117736816Q487.29045952690973 689.5988235473633 514.6771240234375 683.0645751953125L506.74169921875 633.45263671875Q477.451416015625 637.162353515625 452.49799321321836 639.2806396484375Q427.5445704108117 641.39892578125 399.1661680080747 642.4580688476562Q370.78776560533765 643.5172119140625 331.6451416015625 643.5172119140625Q258.0863794787177 643.5172119140625 215.2685925713901 615.3880615234375Q172.4508056640625 587.2589111328125 153.99908447265625 522.0006103515625Q135.54736328125 456.7423095703125 135.54736328125 345Q135.54736328125 233.2576904296875 153.99908447265625 167.9993896484375Q172.4508056640625 102.7410888671875 215.2685925713901 74.6119384765625Q258.0863794787177 46.4827880859375 331.6451416015625 46.4827880859375Q394.2257080078125 46.4827880859375 437.0159912109375 49.16021728515625Q479.8062744140625 51.837646484375 520.74169921875 58.1925048828125L528.6771240234375 9.2257080078125Q486.73467231977105 -1.8485744310461956 442.3537059821705 -6.924287215523098Q397.9727396445699 -12 331.6451416015625 -12Q234.57895709396502 -12 176.24119973838876 22.5Q117.9034423828125 57 92.1131591796875 135.0Q66.3228759765625 213 66.3228759765625 345Q66.3228759765625 477 92.1131591796875 555.0Q117.9034423828125 633 176.24119973838876 667.5Q234.57895709396502 702 331.6451416015625 702Z"></path><path transform="translate(18.004,0) scale(0.020765,-0.020765)" d="M344.934814453125 690Q354.4508056640625 690 361.49908447265625 685.0968627929688Q368.54736328125 680.1937255859375 370.837646484375 671.3228759765625L602.06396484375 0H533.77490234375L339.870849609375 582.323486328125Q335.5159912109375 596.323486328125 330.83856201171875 610.6460571289062Q326.1611328125 624.9686279296875 321.8062744140625 638.323486328125H293.451416015625Q289.0965576171875 624.9686279296875 284.74169921875 610.6460571289062Q280.3868408203125 596.323486328125 275.3868408203125 582.323486328125L81.4827880859375 0H13.1937255859375L244.4200439453125 671.3228759765625Q247.065185546875 680.1937255859375 254.11346435546875 685.0968627929688Q261.1617431640625 690 270.3228759765625 690ZM481.8062744140625 285.612548828125V228.77490234375H131.8062744140625V285.612548828125Z"></path><path transform="translate(37.004,0) scale(0.020765,-0.020765)" d="M324 698.6451416015625Q403.451416015625 698.6451416015625 450.1771240234375 680.0Q496.90283203125 661.3548583984375 517.3705444335938 615.7420043945312Q537.8382568359375 570.129150390625 537.8382568359375 487.08087158203125Q537.8382568359375 404.0325927734375 517.7678590308963 358.0511176422352Q497.6974612258551 312.0696425110329 452.1719247412494 293.9705512359852Q406.6463882566437 275.8714599609375 330.2809722179503 275.8714599609375Q289.1611328125 275.8714599609375 252.08056640625 277.33917236328125Q215 278.806884765625 184.41943359375 281.41973876953125Q153.8388671875 284.0325927734375 132.58087158203125 286.79058837890625Q111.3228759765625 289.548583984375 102.677734375 291.8388671875L105.677734375 333.06396484375Q157.41265622810397 333.06396484375 213.0521004852158 333.06396484375Q268.6915447423276 333.06396484375 323.3548583984375 333.06396484375Q378.2382308539994 334.16746520996094 410.61942060278096 346.8577194213867Q443.0006103515625 359.5479736328125 457.09747314453125 393.1313217517942Q471.1943359375 426.7146698707758 471.1943359375 487.2748058230378Q471.1943359375 548.93603515625 457.09747314453125 582.1297607421875Q443.0006103515625 615.323486328125 410.61942060278096 628.3880615234375Q378.2382308539994 641.45263671875 323.3548583984375 641.45263671875Q243.38161183826958 641.45263671875 185.35224390741604 640.6300659179688Q127.3228759765625 639.8074951171875 106.535791015625 637.8074951171875L92.677734375 690Q129.6131591796875 694 161.84816293380968 695.858056640625Q194.08316668793185 697.71611328125 232.17908021553077 698.1806274414063Q270.2749937431297 698.6451416015625 324 698.6451416015625ZM158.3216552734375 690V0H92.677734375V690Z"></path><path transform="translate(55.423,0) scale(0.020765,-0.020765)" d="M158.3216552734375 690V0H92.677734375V690Z"></path><path transform="translate(66.864,0) scale(0.020765,-0.020765)" d="M319.8056640625 690V0H254.1617431640625V690ZM549.90283203125 690V631.8720703125H25.0645751953125V690Z"></path><path transform="translate(85.034,0) scale(0.020765,-0.020765)" d="M344.934814453125 690Q354.4508056640625 690 361.49908447265625 685.0968627929688Q368.54736328125 680.1937255859375 370.837646484375 671.3228759765625L602.06396484375 0H533.77490234375L339.870849609375 582.323486328125Q335.5159912109375 596.323486328125 330.83856201171875 610.6460571289062Q326.1611328125 624.9686279296875 321.8062744140625 638.323486328125H293.451416015625Q289.0965576171875 624.9686279296875 284.74169921875 610.6460571289062Q280.3868408203125 596.323486328125 275.3868408203125 582.323486328125L81.4827880859375 0H13.1937255859375L244.4200439453125 671.3228759765625Q247.065185546875 680.1937255859375 254.11346435546875 685.0968627929688Q261.1617431640625 690 270.3228759765625 690ZM481.8062744140625 285.612548828125V228.77490234375H131.8062744140625V285.612548828125Z"></path><path transform="translate(104.034,0) scale(0.020765,-0.020765)" d="M155.3216552734375 690V127.22509765625Q155.3216552734375 92.515380859375 174.12823486328125 74.0313720703125Q192.934814453125 55.54736328125 227.64453125 55.54736328125H484.8062744140625L487.3868408203125 5.290283203125Q420.9674072265625 1 352.7576904296875 0.17742919921875Q284.5479736328125 -0.6451416015625 216.8382568359375 -0.6451416015625Q152.1937255859375 -0.6451416015625 121.25830078125 33.5159912109375Q90.3228759765625 67.6771240234375 90.3228759765625 119.4188232421875V690Z"></path><path transform="translate(131.798,0) scale(0.020765,-0.020765)" d="M324 698.6451416015625Q403.451416015625 698.6451416015625 450.1771240234375 680.0Q496.90283203125 661.3548583984375 517.3705444335938 615.7420043945312Q537.8382568359375 570.129150390625 537.8382568359375 487.08087158203125Q537.8382568359375 404.0325927734375 517.7678590308963 358.0511176422352Q497.6974612258551 312.0696425110329 452.1719247412494 293.9705512359852Q406.6463882566437 275.8714599609375 330.2809722179503 275.8714599609375Q289.1611328125 275.8714599609375 252.08056640625 277.33917236328125Q215 278.806884765625 184.41943359375 281.41973876953125Q153.8388671875 284.0325927734375 132.58087158203125 286.79058837890625Q111.3228759765625 289.548583984375 102.677734375 291.8388671875L105.677734375 333.06396484375Q157.41265622810397 333.06396484375 213.0521004852158 333.06396484375Q268.6915447423276 333.06396484375 323.3548583984375 333.06396484375Q378.2382308539994 334.16746520996094 410.61942060278096 346.8577194213867Q443.0006103515625 359.5479736328125 457.09747314453125 393.1313217517942Q471.1943359375 426.7146698707758 471.1943359375 487.2748058230378Q471.1943359375 548.93603515625 457.09747314453125 582.1297607421875Q443.0006103515625 615.323486328125 410.61942060278096 628.3880615234375Q378.2382308539994 641.45263671875 323.3548583984375 641.45263671875Q243.38161183826958 641.45263671875 185.35224390741604 640.6300659179688Q127.3228759765625 639.8074951171875 106.535791015625 637.8074951171875L92.677734375 690Q129.6131591796875 694 161.84816293380968 695.858056640625Q194.08316668793185 697.71611328125 232.17908021553077 698.1806274414063Q270.2749937431297 698.6451416015625 324 698.6451416015625ZM158.3216552734375 690V0H92.677734375V690Z"></path><path transform="translate(150.217,0) scale(0.020765,-0.020765)" d="M344.934814453125 690Q354.4508056640625 690 361.49908447265625 685.0968627929688Q368.54736328125 680.1937255859375 370.837646484375 671.3228759765625L602.06396484375 0H533.77490234375L339.870849609375 582.323486328125Q335.5159912109375 596.323486328125 330.83856201171875 610.6460571289062Q326.1611328125 624.9686279296875 321.8062744140625 638.323486328125H293.451416015625Q289.0965576171875 624.9686279296875 284.74169921875 610.6460571289062Q280.3868408203125 596.323486328125 275.3868408203125 582.323486328125L81.4827880859375 0H13.1937255859375L244.4200439453125 671.3228759765625Q247.065185546875 680.1937255859375 254.11346435546875 685.0968627929688Q261.1617431640625 690 270.3228759765625 690ZM481.8062744140625 285.612548828125V228.77490234375H131.8062744140625V285.612548828125Z"></path><path transform="translate(169.217,0) scale(0.020765,-0.020765)" d="M324.6451416015625 698.6451416015625Q402.1611328125 698.6451416015625 449.20941162109375 681.5Q496.2576904296875 664.3548583984375 517.693115234375 621.709716796875Q539.1285400390625 579.0645751953125 539.1285400390625 501.41943359375Q539.1285400390625 443.290283203125 525.9511108398438 405.4354248046875Q512.773681640625 367.58056640625 485.09625244140625 347.61285400390625Q457.4188232421875 327.6451416015625 412.1285400390625 321.290283203125V316.6451416015625Q429.4833984375 312.290283203125 445.09625244140625 299.25799560546875Q460.7091064453125 286.2257080078125 473.64453125 266.08056640625Q486.5799560546875 245.9354248046875 493.934814453125 219.0645751953125L564.1285400390625 0H493.5491943359375L427.93603515625 216.709716796875Q413.5166015625 259.6131591796875 389.387451171875 277.71002197265625Q365.25830078125 295.806884765625 328.4840087890625 295.806884765625Q268.9034423828125 295.806884765625 223.548583984375 296.48431396484375Q178.1937255859375 297.1617431640625 148.1937255859375 298.1617431640625Q118.1937255859375 299.1617431640625 102.677734375 299.5166015625L105.677734375 352.9993896484375H323.3548583984375Q378.968017578125 353.9993896484375 411.306884765625 366.4188232421875Q443.645751953125 378.8382568359375 458.065185546875 410.1771240234375Q472.484619140625 441.5159912109375 472.484619140625 498.1937255859375Q472.484619140625 555.226318359375 458.065185546875 586.0974731445312Q443.645751953125 616.9686279296875 411.306884765625 629.2106323242188Q378.968017578125 641.45263671875 323.3548583984375 641.45263671875Q243.4840087890625 641.45263671875 185.4034423828125 640.6300659179688Q127.3228759765625 639.8074951171875 106.677734375 639.0977783203125L92.677734375 690Q129.6131591796875 694 161.9034423828125 695.8225708007812Q194.1937255859375 697.6451416015625 232.629150390625 698.1451416015625Q271.0645751953125 698.6451416015625 324.6451416015625 698.6451416015625ZM157.676513671875 690V0H92.677734375V690Z"></path><path transform="translate(188.196,0) scale(0.020765,-0.020765)" d="M319.8056640625 690V0H254.1617431640625V690ZM549.90283203125 690V631.8720703125H25.0645751953125V690Z"></path><path transform="translate(206.366,0) scale(0.020765,-0.020765)" d="M606.2896728515625 690V27.90283203125Q606.2896728515625 0 579.031982421875 0H508.645751953125Q496.8394775390625 0 489.43634033203125 5.40313720703125Q482.033203125 10.8062744140625 477.0977783203125 21.9674072265625L213.22509765625 546.4532470703125Q204.22509765625 565.388671875 193.11224365234375 587.5498046875Q181.9993896484375 609.7109375 174.934814453125 629.29150390625H155.7410888671875Q157.0313720703125 609.0657958984375 157.676513671875 588.0175170898438Q158.3216552734375 566.96923828125 158.3216552734375 546.098388671875V0H92.677734375V662.09716796875Q92.677734375 690 120.58056640625 690H187.966796875Q199.7730712890625 690 207.17620849609375 684.5968627929688Q214.579345703125 679.1937255859375 219.5147705078125 668.0325927734375L476.387451171875 155.901611328125Q487.387451171875 135.2564697265625 499.35516357421875 110.8856201171875Q511.3228759765625 86.5147705078125 522.3228759765625 62.6439208984375H543.226318359375Q542.5811767578125 88.2244873046875 541.93603515625 112.98248291015625Q541.2908935546875 137.740478515625 541.2908935546875 162.321044921875V690Z"></path><path transform="translate(227.111,0) scale(0.020765,-0.020765)" d="M208.6771240234375 690.6451416015625Q258.322265625 690.6451416015625 308.28997802734375 690.6451416015625Q358.2576904296875 690.6451416015625 407.58026123046875 689.3225708007812Q456.90283203125 688 503.9674072265625 685.3548583984375L500.6771240234375 634.45263671875H220.1285400390625Q187.354248046875 634.45263671875 169.83795166015625 616.2911987304688Q152.3216552734375 598.1297607421875 152.3216552734375 562.77490234375V127.22509765625Q152.3216552734375 91.8702392578125 169.83795166015625 73.38623046875Q187.354248046875 54.9022216796875 220.1285400390625 54.9022216796875H500.6771240234375L503.9674072265625 4.6451416015625Q456.90283203125 2 407.58026123046875 1.0Q358.2576904296875 0 308.28997802734375 -0.32257080078125Q258.322265625 -0.6451416015625 208.6771240234375 -0.6451416015625Q153.709716796875 -0.6451416015625 120.51629638671875 30.61285400390625Q87.3228759765625 61.870849609375 86.677734375 112.9674072265625V577.0325927734375Q87.3228759765625 628.7742919921875 120.51629638671875 659.709716796875Q153.709716796875 690.6451416015625 208.6771240234375 690.6451416015625ZM104.3228759765625 393.2576904296875 460.9674072265625 392.90283203125V340.0006103515625L104.3228759765625 339.645751953125Z"></path><path transform="translate(244.907,0) scale(0.020765,-0.020765)" d="M324.6451416015625 698.6451416015625Q402.1611328125 698.6451416015625 449.20941162109375 681.5Q496.2576904296875 664.3548583984375 517.693115234375 621.709716796875Q539.1285400390625 579.0645751953125 539.1285400390625 501.41943359375Q539.1285400390625 443.290283203125 525.9511108398438 405.4354248046875Q512.773681640625 367.58056640625 485.09625244140625 347.61285400390625Q457.4188232421875 327.6451416015625 412.1285400390625 321.290283203125V316.6451416015625Q429.4833984375 312.290283203125 445.09625244140625 299.25799560546875Q460.7091064453125 286.2257080078125 473.64453125 266.08056640625Q486.5799560546875 245.9354248046875 493.934814453125 219.0645751953125L564.1285400390625 0H493.5491943359375L427.93603515625 216.709716796875Q413.5166015625 259.6131591796875 389.387451171875 277.71002197265625Q365.25830078125 295.806884765625 328.4840087890625 295.806884765625Q268.9034423828125 295.806884765625 223.548583984375 296.48431396484375Q178.1937255859375 297.1617431640625 148.1937255859375 298.1617431640625Q118.1937255859375 299.1617431640625 102.677734375 299.5166015625L105.677734375 352.9993896484375H323.3548583984375Q378.968017578125 353.9993896484375 411.306884765625 366.4188232421875Q443.645751953125 378.8382568359375 458.065185546875 410.1771240234375Q472.484619140625 441.5159912109375 472.484619140625 498.1937255859375Q472.484619140625 555.226318359375 458.065185546875 586.0974731445312Q443.645751953125 616.9686279296875 411.306884765625 629.2106323242188Q378.968017578125 641.45263671875 323.3548583984375 641.45263671875Q243.4840087890625 641.45263671875 185.4034423828125 640.6300659179688Q127.3228759765625 639.8074951171875 106.677734375 639.0977783203125L92.677734375 690Q129.6131591796875 694 161.9034423828125 695.8225708007812Q194.1937255859375 697.6451416015625 232.629150390625 698.1451416015625Q271.0645751953125 698.6451416015625 324.6451416015625 698.6451416015625ZM157.676513671875 690V0H92.677734375V690Z"></path><path transform="translate(263.886,0) scale(0.020765,-0.020765)" d="M277.2257080078125 701.6451416015625Q325.5159912109375 700.6451416015625 375.91912841796875 697.0Q426.322265625 693.3548583984375 475.8382568359375 684.4840087890625L470.90283203125 636.45263671875Q427.193115234375 638.8074951171875 377.322265625 640.662353515625Q327.451416015625 642.5172119140625 279.8062744140625 642.5172119140625Q238.90283203125 642.5172119140625 209.56396484375 639.8397827148438Q180.22509765625 637.162353515625 161.27337646484375 626.0654907226562Q142.3216552734375 614.9686279296875 133.757080078125 589.9200439453125Q125.1925048828125 564.8714599609375 125.1925048828125 520.129150390625Q125.1925048828125 456.3868408203125 147.28936767578125 429.6285400390625Q169.38623046875 402.8702392578125 219.9993896484375 392.934814453125L364.612548828125 362.90283203125Q443.193115234375 347.451416015625 473.40283203125 302.4354248046875Q503.612548828125 257.41943359375 503.612548828125 173.5159912109375Q503.612548828125 113.1611328125 489.93511962890625 76.33856201171875Q476.2576904296875 39.5159912109375 448.78997802734375 20.7257080078125Q421.322265625 1.9354248046875 379.0965576171875 -4.8548583984375Q336.870849609375 -11.6451416015625 280.0645751953125 -11.6451416015625Q243.58056640625 -11.6451416015625 190.8548583984375 -9.0Q138.129150390625 -6.3548583984375 69.6131591796875 4.5159912109375L74.548583984375 53.1925048828125Q126.0965576171875 50.837646484375 160.49969482421875 49.337646484375Q194.90283203125 47.837646484375 222.85455322265625 47.66021728515625Q250.8062744140625 47.4827880859375 282.3548583984375 47.4827880859375Q340.3228759765625 47.837646484375 374.19403076171875 56.72479248046875Q408.065185546875 65.6119384765625 422.6943359375 92.98309326171875Q437.323486328125 120.354248046875 437.323486328125 174.8062744140625Q437.323486328125 220.129150390625 427.61376953125 245.677734375Q417.904052734375 271.226318359375 396.45233154296875 284.5006103515625Q375.0006103515625 297.77490234375 340.7423095703125 304.065185546875L194.1937255859375 334.7423095703125Q119.9034423828125 349.8388671875 89.4034423828125 395.24200439453125Q58.9034423828125 440.6451416015625 58.9034423828125 521.41943359375Q58.9034423828125 582.129150390625 72.22601318359375 618.4517211914062Q85.548583984375 654.7742919921875 112.3388671875 672.91943359375Q139.129150390625 691.0645751953125 180.24200439453125 696.5322875976562Q221.3548583984375 702 277.2257080078125 701.6451416015625Z"></path></g></g></svg>