<svg xmlns="http://www.w3.org/2000/svg" viewBox="0 0 512.00 512.00" width="512.00" height="512.00"><g transform="translate(76.800,97.046) scale(0.861538)"><g transform="translate(0.000000,369.000000) scale(0.100000,-0.100000)" stroke="none"><path d="M1880 3598 c-69 -44 -289 -175 -490 -291 -201 -115 -371 -215 -378&#xA;-222 l-13 -12 413 -238 c227 -131 455 -265 506 -297 l93 -58 34 0 34 0 516&#xA;297 c283 164 515 300 515 303 0 3 -232 139 -515 303 l-515 297 -37 0 -38 -1&#xA;-125 -81z" fill="#FFFFFF"></path><path d="M2765 2470 l-639 -390 -38 0 -38 0 -642 382 c-354 210 -647 381 -653&#xA;381 -12 0 -605 -394 -605 -402 0 -3 412 -251 915 -549 l915 -544 62 -10 63&#xA;-11 55 15 56 14 769 468 c424 258 830 505 903 550 l132 81 -3 9 c-3 9 -596&#xA;396 -606 396 -3 0 -294 -176 -646 -390z" fill="#FFFFFF"></path><path d="M10 1667 l0 -524 948 -549 947 -549 50 -17 50 -17 66 -1 65 0 50 15&#xA;49 15 955 554 955 553 3 522 c1 286 0 521 -4 521 -5 0 -323 -183 -1684 -972&#xA;l-325 -188 -58 0 -58 0 -32 17 c-18 9 -273 156 -567 326 -294 171 -717 416&#xA;-940 544 -223 129 -420 244 -437 255 l-33 20 0 -525z" fill="#FFFFFF"></path></g></g></svg>